<?xml version="1.0" standalone="no"?>
<!DOCTYPE svg PUBLIC "-//W3C//DTD SVG 20010904//EN"
 "http://www.w3.org/TR/2001/REC-SVG-20010904/DTD/svg10.dtd">
<svg version="1.0" xmlns="http://www.w3.org/2000/svg"
 width="20" height="20" viewBox="0 0 512.000000 512.000000"
 preserveAspectRatio="xMidYMid meet">

<g transform="translate(0.000000,512.000000) scale(0.100000,-0.100000)"
fill="#FFF" stroke="none">
<path d="M1864 5111 c-95 -24 -195 -107 -237 -199 -20 -43 -22 -66 -25 -259
l-3 -212 -448 -3 -448 -3 -48 -30 c-33 -21 -57 -47 -79 -85 l-31 -55 0 -270 0
-270 31 -55 c22 -38 46 -64 79 -85 44 -27 57 -30 152 -33 l103 -4 0 -1607 c0
-1114 3 -1626 11 -1667 20 -112 76 -186 182 -242 l52 -27 1405 0 1405 0 50 25
c60 29 126 93 154 148 11 22 25 68 31 103 6 42 10 611 10 1666 l0 1601 103 4
c95 3 108 6 152 33 33 21 57 47 79 85 l31 55 0 270 0 270 -31 55 c-22 38 -46
64 -79 85 l-48 30 -448 3 -448 3 -3 212 c-3 193 -5 216 -25 259 -30 66 -105
143 -172 175 l-56 28 -685 2 c-377 1 -699 -2 -716 -6z m1356 -291 c19 -19 20
-33 20 -200 l0 -180 -680 0 -680 0 0 180 c0 167 1 181 20 200 20 20 33 20 660
20 627 0 640 0 660 -20z m1070 -825 l0 -165 -1730 0 -1730 0 0 165 0 165 1730
0 1730 0 0 -165z m-370 -2068 c0 -1249 -3 -1626 -12 -1635 -17 -17 -2679 -17
-2696 0 -9 9 -12 386 -12 1635 l0 1623 1360 0 1360 0 0 -1623z"/>
<path d="M1672 3081 c-18 -12 -41 -35 -52 -53 -20 -32 -20 -53 -20 -1138 0
-1051 1 -1107 18 -1139 54 -101 203 -91 248 16 12 27 14 222 14 1125 0 1021
-1 1095 -18 1127 -36 72 -126 101 -190 62z"/>
<path d="M2500 3083 c-19 -10 -45 -33 -57 -52 l-23 -34 0 -1104 c0 -1198 -3
-1129 55 -1183 22 -21 37 -25 85 -25 48 0 63 4 85 25 58 54 55 -15 55 1182 0
1076 -1 1104 -20 1135 -39 65 -117 89 -180 56z"/>
<path d="M3321 3083 c-19 -10 -44 -31 -55 -46 -21 -28 -21 -34 -24 -1135 -2
-1039 -1 -1109 15 -1142 51 -100 193 -106 245 -9 17 32 18 88 18 1139 0 1078
-1 1106 -20 1137 -39 65 -117 89 -179 56z"/>
</g>
</svg>
