<?xml version="1.0" standalone="no"?>
<!DOCTYPE svg PUBLIC "-//W3C//DTD SVG 20010904//EN"
 "http://www.w3.org/TR/2001/REC-SVG-20010904/DTD/svg10.dtd">
<svg version="1.0" xmlns="http://www.w3.org/2000/svg"
 width="20" height="20" viewBox="0 0 529.000000 539.000000"
 preserveAspectRatio="xMidYMid meet">

<g transform="translate(0.000000,539.000000) scale(0.100000,-0.100000)"
fill="#000000" stroke="none">
<path d="M4366 5359 c-110 -26 -71 11 -1816 -1737 l-1665 -1667 -170 -359
c-93 -198 -177 -366 -186 -375 -9 -9 -25 -43 -37 -76 -11 -33 -120 -267 -242
-520 -122 -253 -224 -474 -227 -491 -6 -36 17 -86 49 -108 12 -9 41 -16 63
-16 36 0 145 60 859 470 450 259 832 477 849 484 38 17 3354 3334 3385 3386
62 107 67 245 11 359 -28 58 -65 99 -296 326 -146 143 -277 268 -291 278 -70
46 -197 67 -286 46z m140 -239 c30 -12 174 -147 174 -164 0 -11 -3149 -3165
-3151 -3156 0 3 -1 40 -2 83 -2 75 -3 80 -35 108 -30 27 -37 29 -120 29 l-87
0 1540 1541 c847 848 1554 1547 1570 1555 36 16 74 18 111 4z m437 -419 c42
-43 81 -90 87 -105 13 -36 13 -82 -2 -109 -11 -22 -3093 -3119 -3109 -3125 -5
-2 -9 37 -9 87 0 150 -24 178 -149 173 l-76 -3 1580 1581 c869 869 1585 1580
1591 1580 6 0 45 -35 87 -79z m-3678 -3105 c-11 -259 -9 -260 298 -240 l97 7
0 -109 0 -109 -331 -190 c-181 -104 -335 -191 -342 -193 -7 -1 -72 58 -145
131 l-133 133 173 360 174 359 84 6 c47 3 96 6 109 7 l24 2 -8 -164z"/>
</g>
</svg>
