<svg width="30" height="20" viewBox="0 0 30 20" fill="none" xmlns="http://www.w3.org/2000/svg">
<path d="M2.77986 2.4818H0.570099V1.03632C2.68017 1.03632 4.45795 1.03632 6.58464 1.03632V2.4818H4.37488V8.29696H2.76325V2.4818H2.77986Z" fill="#231F20"/>
<path d="M18.4974 8.09761H16.703L14.8422 5.7217H13.6791V8.09761H12.0675V0.853577C13.2472 0.853577 14.3437 0.853577 15.5068 0.853577C17.2513 0.853577 18.1817 2.01661 18.1817 3.29594C18.1651 4.24298 17.8993 5.07372 16.5036 5.57216L18.4974 7.9813V8.09761ZM13.6791 2.24922V4.35929H15.5234C16.271 4.35929 16.5867 3.79439 16.5867 3.34579C16.5701 2.84735 16.2544 2.24922 15.5068 2.24922H13.6791Z" fill="#231F20"/>
<path d="M24.8608 8.01452V0.753876H26.4725V7.9979H24.8608V8.01452Z" fill="#231F20"/>
<path d="M5.37174 16.6043L5.27206 14.3281V11.8857H6.9003V19.1298H5.50466L1.89926 14.4943L1.96572 16.8702V19.1298H0.320862V11.8857H1.7165L5.37174 16.6043Z" fill="#231F20"/>
<path d="M18.3645 17.9834C17.6168 18.7144 16.6531 19.0467 15.5732 19.0467C12.8151 19.0467 11.7019 17.269 11.7019 15.2918C11.6853 13.4143 12.9148 11.4538 15.5732 11.4538C16.5701 11.4538 17.4839 11.8359 18.2315 12.567L17.218 13.5639C16.7861 13.1319 16.1547 12.9657 15.5732 12.9657C13.9283 12.9657 13.2803 14.2451 13.297 15.2918C13.3136 16.3551 13.8785 17.5514 15.5732 17.5514C16.1547 17.5514 16.919 17.2856 17.351 16.8536L18.3645 17.9834Z" fill="#231F20"/>
<path d="M27.4029 18H23.6812L23.1495 19.2461H21.405L24.6615 12.0021H26.4226L29.6791 19.2461H27.9346L27.4029 18ZM25.542 13.6303L24.2959 16.5711H26.7881L25.542 13.6303Z" fill="#231F20"/>
</svg>
